<svg width="30" height="13" viewBox="0 0 30 13" fill="none" xmlns="http://www.w3.org/2000/svg">
<path d="M3.906 12.5321H4.872V11.1181C6.622 10.9781 7.77 10.0261 7.77 8.57011C7.77 6.87611 6.314 6.47011 4.872 6.16211V2.87211C5.852 2.99811 6.384 3.50211 6.846 4.56611L7.756 3.85211C7.112 2.66211 6.286 2.03211 4.872 1.92011V0.49211H3.906V1.90611C2.1 2.06011 1.022 3.18011 1.022 4.56611C1.022 6.21811 2.464 6.61011 3.906 6.91811V10.1661C2.842 9.97011 1.904 9.24211 1.694 8.20611L0.658 8.73811C1.148 10.1521 2.282 10.9781 3.906 11.1181V12.5321ZM3.906 5.96611C2.898 5.72811 2.086 5.39211 2.086 4.48211C2.086 3.55811 2.702 2.97011 3.906 2.85811V5.96611ZM4.872 10.1941V7.12811C5.894 7.36611 6.72 7.71611 6.72 8.65411C6.72 9.63411 6.006 10.0961 4.872 10.1941ZM11.9313 1.89211C11.4133 2.60611 9.78928 3.47411 9.13128 3.55811L9.42528 4.58011C10.2933 4.37011 11.1753 3.89411 11.8193 3.27811C11.8053 3.67011 11.7913 4.04811 11.7913 4.35611V11.1321H12.9113V1.89211H11.9313ZM15.3778 11.1321H21.5938V10.0821H18.3598C18.0798 10.0821 17.2818 10.1101 16.9738 10.1241V10.1101C20.2778 7.91211 21.3978 6.38611 21.3978 4.65011C21.3978 2.94211 20.1938 1.75211 18.3038 1.75211C16.4278 1.75211 15.3218 2.88611 15.0838 4.49611L16.0638 5.08411C16.1898 3.69811 16.9878 2.80211 18.2618 2.80211C19.4658 2.80211 20.2218 3.55811 20.2218 4.65011C20.2218 6.28811 19.0738 7.50611 15.3778 10.2221V11.1321ZM29.9621 7.74411H28.3241V1.89211H26.9101L22.6961 7.88411V8.71011H27.2041V11.1321H28.3241V8.71011H29.9621V7.74411ZM26.3081 4.34211C26.6021 3.92211 27.0081 3.26411 27.2321 2.80211H27.2601L27.2041 4.28611V7.74411H23.8861L26.3081 4.34211Z" fill="#161615"/>
</svg>
