<svg width="117" height="11" viewBox="0 0 117 11" fill="none" xmlns="http://www.w3.org/2000/svg">
<path d="M5.236 0.51862C2.604 0.51862 0.952 2.35262 0.952 5.27862C0.952 8.20462 2.604 10.0386 5.236 10.0386C7.868 10.0386 9.52 8.20462 9.52 5.27862C9.52 2.35262 7.868 0.51862 5.236 0.51862ZM5.236 1.56862C7.154 1.56862 8.344 2.95462 8.344 5.27862C8.344 7.60262 7.154 8.98862 5.236 8.98862C3.318 8.98862 2.128 7.60262 2.128 5.27862C2.128 2.95462 3.318 1.56862 5.236 1.56862ZM17.8367 9.89862H19.1667L16.5627 5.93662C17.8227 5.60062 18.6067 4.67662 18.6067 3.36062C18.6067 1.69462 17.3607 0.65862 15.4847 0.65862H11.9847V9.89862H13.1047V6.06262H15.3167L17.8367 9.89862ZM13.1047 1.70862H15.4707C16.7867 1.70862 17.4307 2.25462 17.4307 3.36062C17.4307 4.46662 16.7867 5.01262 15.4707 5.01262H13.1047V1.70862ZM22.4152 8.84862V5.74062H26.5872V4.69062H22.4152V1.70862H27.7772V0.65862H21.2952V9.89862H27.9872V8.84862H22.4152ZM33.5739 5.23662V6.28662H36.5139V6.60862C36.5139 8.20462 35.3239 8.98862 33.7839 8.98862C31.7259 8.98862 30.6339 7.60262 30.6339 5.27862C30.6339 2.95462 31.8939 1.56862 33.7699 1.56862C35.0579 1.56862 36.0379 2.12862 36.4439 3.19262L37.4659 2.63262C36.7519 1.20462 35.6039 0.51862 33.7699 0.51862C31.1799 0.51862 29.4579 2.35262 29.4579 5.27862C29.4579 8.20462 31.1099 10.0386 33.7419 10.0386C35.1559 10.0386 36.1219 9.52062 36.6539 8.65262L36.6959 9.89862H37.5359V5.23662H33.5739ZM43.8727 0.51862C41.2407 0.51862 39.5887 2.35262 39.5887 5.27862C39.5887 8.20462 41.2407 10.0386 43.8727 10.0386C46.5047 10.0386 48.1567 8.20462 48.1567 5.27862C48.1567 2.35262 46.5047 0.51862 43.8727 0.51862ZM43.8727 1.56862C45.7907 1.56862 46.9807 2.95462 46.9807 5.27862C46.9807 7.60262 45.7907 8.98862 43.8727 8.98862C41.9547 8.98862 40.7647 7.60262 40.7647 5.27862C40.7647 2.95462 41.9547 1.56862 43.8727 1.56862ZM57.8734 0.65862H56.8094V7.18262L56.8654 8.66662H56.8514L55.8574 6.81862L52.0074 0.65862H50.6214V9.89862H51.6854V3.37462L51.6294 1.89062H51.6434L52.6234 3.71062L56.4874 9.89862H57.8734V0.65862ZM70.3303 0.65862H69.2103V6.45462C69.2103 8.10662 68.7343 8.98862 67.1523 8.98862C65.7523 8.98862 65.3043 8.21862 65.5143 6.63662L64.4783 6.84662C64.1143 8.79262 65.1223 10.0386 67.1943 10.0386C69.1543 10.0386 70.3303 8.80662 70.3303 6.73462V0.65862ZM79.2856 9.89862H80.4756L76.8916 0.65862H75.5616L71.9636 9.89862H73.1396L74.1196 7.33662H78.3056L79.2856 9.89862ZM74.5256 6.28662L75.7856 2.96862L76.1916 1.72262H76.2196L76.6536 3.01062L77.8996 6.28662H74.5256ZM89.4873 7.53262L88.3673 7.11262C87.9613 8.35862 86.9953 8.98862 85.7633 8.98862C83.8453 8.98862 82.6553 7.60262 82.6553 5.27862C82.6553 2.94062 83.9293 1.56862 85.8193 1.56862C87.0513 1.56862 87.8073 2.12862 88.2133 3.19262L89.3193 2.67462C88.7313 1.27462 87.5273 0.51862 85.7353 0.51862C83.1593 0.51862 81.4793 2.35262 81.4793 5.27862C81.4793 8.20462 83.1313 10.0386 85.7633 10.0386C87.4993 10.0386 88.8993 9.11462 89.4873 7.53262ZM97.573 9.89862H98.917L95.193 4.42462L98.875 0.65862H97.405L92.757 5.41862V0.65862H91.637V9.89862H92.757V6.93062L94.409 5.25062L97.573 9.89862ZM101.945 8.84862V5.74062H106.117V4.69062H101.945V1.70862H107.307V0.65862H100.825V9.89862H107.517V8.84862H101.945ZM116.248 0.65862H108.688V1.70862H111.908V9.89862H113.028V1.70862H116.248V0.65862Z" fill="#161615"/>
</svg>
